<svg xmlns="http://www.w3.org/2000/svg" viewBox="0 0 24 24"><title>100.Bell</title><g id="_100.Bell" data-name="100.Bell"><path d="M12,24A12,12,0,1,1,24,12,12.013,12.013,0,0,1,12,24ZM12,2A10,10,0,1,0,22,12,10.011,10.011,0,0,0,12,2Z"/><path d="M19,16H5V14H6c.31-.047,1-.737,1-3a4.689,4.689,0,0,1,4-4.9V5h2V6.1A4.689,4.689,0,0,1,17,11c0,2.233.673,2.935,1.041,3H19ZM8.494,14h7.012A7.692,7.692,0,0,1,15,11a2.852,2.852,0,0,0-3-3,2.852,2.852,0,0,0-3,3A7.692,7.692,0,0,1,8.494,14Z"/><rect x="11" y="16" width="2" height="2"/></g></svg>