<?xml version="1.0" encoding="UTF-8"?>
<!DOCTYPE svg PUBLIC "-//W3C//DTD SVG 1.1//EN" "http://www.w3.org/Graphics/SVG/1.1/DTD/svg11.dtd">
<!-- Creator: CorelDRAW -->
<svg xmlns="http://www.w3.org/2000/svg" xml:space="preserve" width="2048px" height="2048px" style="shape-rendering:geometricPrecision; text-rendering:geometricPrecision; image-rendering:optimizeQuality; fill-rule:evenodd; clip-rule:evenodd"
viewBox="0 0 2048 2048"
 xmlns:xlink="http://www.w3.org/1999/xlink">
 <defs>
  <style type="text/css">
   <![CDATA[
    .fil1 {fill:none}
    .fil0 {fill:#424242}
    .fil2 {fill:white}
   ]]>
  </style>
 </defs>
 <rect class="fil0" width="2048" height="2048"/>
 <g id="Layer_x0020_1">
  <metadata id="CorelCorpID_0Corel-Layer"/>
  <rect class="fil1" width="2048" height="2048"/>
  <rect class="fil1" x="255.999" y="255.999" width="1536" height="1536"/>
  <rect class="fil1" x="255.999" y="255.999" width="1536" height="1536"/>
  <g id="_253500760">
   <rect id="_253555624" class="fil1" x="255.999" y="255.999" width="1536" height="1536"/>
   <g>
    <path id="_253555456" class="fil2" d="M1019.13 488.715c-106.093,0 -192.251,86.6493 -192.251,192.839 0,106.093 86.1579,192.706 192.251,192.706 106.176,0 192.814,-86.6138 192.814,-192.706 0,-106.189 -86.6375,-192.839 -192.814,-192.839z"/>
    <path id="_253555288" class="fil2" d="M650.475 732.279c-71.7485,0 -130.416,58.6311 -130.416,130.369 0,71.6174 58.6678,130.284 130.416,130.284 71.641,0 130.284,-58.6666 130.284,-130.284 0,-71.7379 -58.643,-130.369 -130.284,-130.369z"/>
    <path id="_253555120" class="fil2" d="M1388.33 732.279c-72.0839,0 -130.356,58.6311 -130.356,130.369 0,71.6174 58.2721,130.284 130.356,130.284 71.7615,0 130.416,-58.6666 130.416,-130.284 0,-71.7379 -58.6548,-130.369 -130.416,-130.369z"/>
    <path id="_253554952" class="fil2" d="M390.169 835.945c-48.3709,0 -87.4501,39.104 -87.4501,87.4867 0,48.502 39.0792,87.5824 87.4501,87.5824 48.3827,0 87.4619,-39.0803 87.4619,-87.5824 0,-48.3827 -39.0792,-87.4867 -87.4619,-87.4867z"/>
    <path id="_253554784" class="fil2" d="M394.845 1303.51c-52.3642,-49.4835 -98.9894,-104.958 -138.846,-165.299 20.8902,-53.7638 73.2556,-92.1024 134.17,-92.1024 14.4343,0 27.5398,2.71536 40.5142,6.39804 -22.3973,37.7764 -35.8382,81.5316 -35.8382,128.491l0 122.512z"/>
    <path id="_253554616" class="fil2" d="M669.524 1484c-82.4871,-35.3481 -158.9,-82.141 -227.169,-138.463l0 -125.359c0,-114.894 93.6083,-208.073 208.598,-208.073 20.3764,0 39.5693,3.77835 58.1528,9.27993 -24.2162,47.5453 -39.5823,101.059 -39.5823,157.908l0 304.707z"/>
    <path id="_253554424" class="fil2" d="M1321.38 1515.59c-89.4119,28.376 -184.622,43.7067 -283.421,43.7067 -112.573,0 -220.52,-19.8744 -320.502,-56.2996l0 -288.874c0,-166.254 135.019,-301.753 301.668,-301.753 166.721,0 302.255,135.499 302.255,301.753l0 301.467z"/>
    <path id="_253501168" class="fil2" d="M1596.46 1374.58c-69.0225,51.3603 -145.387,93.3934 -227.18,124.354l0 -236.928c0,-56.8489 -15.3662,-184.371 -39.5575,-231.918 18.5823,-5.5004 38.1225,-9.27875 58.6063,-9.27875 114.535,0 208.132,93.1784 208.132,208.073l0 145.699z"/>
    <path id="_253501000" class="fil2" d="M1792 1178.2c-43.0973,58.3914 -92.8064,111.594 -148.018,158.518l0 -155.72c0,-46.9595 -13.5839,-90.7146 -35.8736,-128.491 13.0099,-3.68268 26.4874,-6.39804 40.5496,-6.39804 75.1453,0 137.316,58.3926 143.342,132.091z"/>
    <path id="_253500904" class="fil2" d="M1648.66 835.945c-48.5374,0 -87.6296,39.104 -87.6296,87.4867 0,48.502 39.0922,87.5824 87.6296,87.5824 48.3591,0 87.4383,-39.0803 87.4383,-87.5824 0,-48.3827 -39.0792,-87.4867 -87.4383,-87.4867z"/>
   </g>
  </g>
 </g>
</svg>
