<?xml version="1.0" encoding="utf-8"?>
<!-- Generator: Adobe Illustrator 16.0.0, SVG Export Plug-In . SVG Version: 6.00 Build 0)  -->
<!DOCTYPE svg PUBLIC "-//W3C//DTD SVG 1.1//EN" "http://www.w3.org/Graphics/SVG/1.1/DTD/svg11.dtd">
<svg version="1.1" id="Layer_1" xmlns="http://www.w3.org/2000/svg" xmlns:xlink="http://www.w3.org/1999/xlink" x="0px" y="0px"
	 width="128px" height="128px" viewBox="0 0 128 128" enable-background="new 0 0 128 128" xml:space="preserve">
<g>
	<g>
		<g>
			<path fill="#282D33" d="M64.505,103.516L34.362,73.374c-8.068-8.071-8.068-21.203-0.001-29.274l0.283-0.28
				c3.904-3.904,9.102-6.058,14.632-6.058s10.728,2.153,14.637,6.063l0.594,0.595l0.595-0.595c3.908-3.909,9.106-6.063,14.636-6.063
				s10.727,2.153,14.636,6.063l0.281,0.285c3.901,3.899,6.055,9.098,6.055,14.627s-2.153,10.728-6.064,14.637L64.505,103.516z
				 M49.276,41.762c-4.461,0-8.655,1.736-11.808,4.891l-0.283,0.281c-6.503,6.506-6.503,17.101,0.005,23.611l27.314,27.314
				l27.311-27.313c3.156-3.155,4.894-7.349,4.894-11.81c0-4.46-1.737-8.654-4.893-11.808l-0.281-0.286
				c-3.145-3.145-7.338-4.881-11.798-4.881c-4.461,0-8.654,1.736-11.808,4.891l-3.427,3.425l-3.419-3.426
				C57.931,43.499,53.737,41.762,49.276,41.762z"/>
		</g>
	</g>
	<g>
		<g>
			<rect x="61.021" y="0.002" fill="#282D33" width="4" height="13.189"/>
		</g>
		<g>
			
				<rect x="27.855" y="12.775" transform="matrix(0.5001 0.866 -0.866 0.5001 30.0176 -22.4476)" fill="#282D33" width="13.192" height="4"/>
		</g>
		<g>
			
				<rect x="7.202" y="34.146" transform="matrix(0.866 0.5 -0.5 0.866 19.9219 -2.0562)" fill="#282D33" width="13.191" height="4"/>
		</g>
		<g>
			<rect y="62.975" fill="#282D33" width="13.192" height="4"/>
		</g>
		<g>
			
				<rect x="12.776" y="86.952" transform="matrix(0.5001 0.8659 -0.8659 0.5001 88.3918 33.9659)" fill="#282D33" width="3.999" height="13.189"/>
		</g>
		<g>
			
				<rect x="34.145" y="107.604" transform="matrix(0.866 0.5 -0.5 0.866 61.9465 -2.7715)" fill="#282D33" width="4" height="13.193"/>
		</g>
		<g>
			<rect x="62.978" y="114.809" fill="#282D33" width="4" height="13.189"/>
		</g>
		<g>
			
				<rect x="86.951" y="111.222" transform="matrix(0.4998 0.8661 -0.8661 0.4998 144.8536 -24.3928)" fill="#282D33" width="13.192" height="4.001"/>
		</g>
		<g>
			
				<rect x="107.605" y="89.854" transform="matrix(0.866 0.5 -0.5 0.866 61.2235 -44.7928)" fill="#282D33" width="13.192" height="4.001"/>
		</g>
		<g>
			<rect x="114.809" y="61.022" fill="#282D33" width="13.191" height="4"/>
		</g>
		<g>
			
				<rect x="111.224" y="27.855" transform="matrix(0.5 0.866 -0.866 0.5 86.4436 -80.8284)" fill="#282D33" width="4" height="13.191"/>
		</g>
		<g>
			
				<rect x="89.854" y="7.201" transform="matrix(0.8661 0.4999 -0.4999 0.8661 19.1992 -44.0721)" fill="#282D33" width="4.001" height="13.191"/>
		</g>
	</g>
</g>
</svg>
