<?xml version="1.0" encoding="UTF-8"?>
<!DOCTYPE svg PUBLIC "-//W3C//DTD SVG 1.1//EN" "http://www.w3.org/Graphics/SVG/1.1/DTD/svg11.dtd">
<!-- Creator: CorelDRAW -->
<svg xmlns="http://www.w3.org/2000/svg" xml:space="preserve" width="2048px" height="2048px" style="shape-rendering:geometricPrecision; text-rendering:geometricPrecision; image-rendering:optimizeQuality; fill-rule:evenodd; clip-rule:evenodd"
viewBox="0 0 2048 2048"
 xmlns:xlink="http://www.w3.org/1999/xlink">
 <defs>
  <style type="text/css">
   <![CDATA[
    .fil1 {fill:none}
    .fil0 {fill:#424242}
    .fil3 {fill:white}
    .fil2 {fill:white;fill-rule:nonzero}
   ]]>
  </style>
 </defs>
 <rect class="fil0" width="2048" height="2048"/>
 <g id="Layer_x0020_1">
  <metadata id="CorelCorpID_0Corel-Layer"/>
  <rect class="fil1" width="2048" height="2048"/>
  <rect class="fil1" x="255.999" y="255.999" width="1536" height="1536"/>
  <rect class="fil1" x="256" y="256" width="1536" height="1536"/>
  <path class="fil2" d="M1432.06 1223.03c7.79528,-1.71142 15.378,-4.25906 22.6866,-7.63819 27.9898,-12.8917 48.1323,-35.974 58.0489,-62.83 9.94843,-26.9398 9.66851,-57.6201 -3.21378,-85.604 -9.14528,-19.8295 -23.6575,-36.1004 -41.2843,-47.3752 -17.6315,-11.2795 -38.5335,-17.6351 -60.4595,-17.6351 -8.11064,0 -16.0866,0.858662 -23.8606,2.5689 -7.94528,1.74921 -15.5728,4.3004 -22.8166,7.64882 -27.9886,12.8929 -48.1311,35.9729 -58.0489,62.8264 -9.94961,26.9386 -9.67442,57.6189 3.20197,85.6075 9.13111,19.8095 23.6386,36.0803 41.2654,47.3575 17.6244,11.2772 38.517,17.6374 60.4276,17.6374 8.23229,0 16.2697,-0.855119 24.0532,-2.56418z"/>
  <rect class="fil1" x="256" y="256" width="1536" height="1536"/>
  <path class="fil3" d="M1425.83 297.086l-1169.83 0 0 441.071 1169.83 0 0 -441.071zm-908.564 310.171c-48.8611,0 -88.7528,-39.7004 -88.7528,-88.793 0,-48.8611 39.7016,-88.5615 88.7528,-88.5615 49.0926,0 88.793,39.7004 88.793,88.5615 0,49.0926 -39.7004,88.793 -88.793,88.793zm327.052 0c-48.9166,0 -88.617,-39.7004 -88.617,-88.793 0,-48.8611 39.7004,-88.5615 88.617,-88.5615 49.0512,0 88.7516,39.7004 88.7516,88.5615 0,49.0926 -39.7004,88.793 -88.7516,88.793zm338.605 -0.950788c-48.9024,0 -88.7942,-39.7004 -88.7942,-88.5627 0,-49.0926 39.7418,-88.793 88.7942,-88.793 49.0512,0 88.793,39.7004 88.793,88.793 0,48.8622 -39.7418,88.5627 -88.793,88.5627z"/>
  <path class="fil3" d="M1015.11 1121.41c0,-139.001 75.2693,-260.359 187.087,-326.292l-946.198 0 0 441.261 776.903 0c-11.4165,-36.3425 -17.791,-74.889 -17.791,-114.97zm-497.842 -16.1197c-48.8611,0 -88.7528,-39.7004 -88.7528,-88.793 0,-48.8611 39.7016,-88.6028 88.7528,-88.6028 49.0926,0 88.793,39.7418 88.793,88.6028 0,49.0926 -39.7004,88.793 -88.793,88.793zm327.052 0c-48.9166,0 -88.617,-39.7004 -88.617,-88.793 0,-48.8611 39.7004,-88.6028 88.617,-88.6028 49.0512,0 88.7516,39.7418 88.7516,88.6028 0,49.0926 -39.7004,88.793 -88.7516,88.793z"/>
  <path class="fil3" d="M1289.32 1485.28l0 170.451 -896.766 0 0 -250.762 750.67 0c-30.7299,-27.3732 -56.9611,-59.4083 -77.5253,-95.1816l-809.699 0 0 441.126 1169.83 0 0 -252.299c-10.4528,0.910631 -21.1488,1.67244 -31.8449,1.67244 -36.4796,0 -71.5323,-5.40945 -104.668,-15.0059z"/>
  <path class="fil3" d="M1607.06 1324.67l0 0zm-35.0551 93.8103l0 0zm-39.6343 18.2386l0 0zm-93.8257 -35.0906l0 0zm-335.262 -123.84l0 0zm180.375 -486.967l0 0zm93.6001 34.8532l0 0zm75.8044 -40.9654c16.5165,-7.60276 36.0225,-9.13583 53.9953,-2.53583l40.8957 15.111c18.3284,6.78071 32.2229,20.4343 39.841,37.0111 7.56969,16.4681 8.89843,35.791 2.16496,54.039l-3.72402 10.0713c3.92008,3.23622 7.75158,6.58229 11.4898,10.0347 3.78425,3.49488 7.48701,7.11378 11.1047,10.8543l9.69922 -4.45985 -0.022441 -0.0472441 0.122835 -0.056693 0.125197 0c17.7236,-8.14371 37.0193,-8.3504 53.8796,-2.11536 16.9843,6.28347 31.5992,19.0335 39.8138,36.7536l0 0.125197 0.00944883 0.0200788 0.0472441 -0.0212599 18.2327 39.5422 -0.0507874 0.0236221 0.068504 0.13937c8.14843,17.7591 8.37757,37.1091 2.14488,54.0213 -6.28347,17.0433 -19.05,31.6843 -36.8268,39.8634l-0.00590552 -0.0129921 -0.0318898 0.0307087 -9.73938 4.48701c0.475985,5.12717 0.809056,10.2591 1.00039,15.3921 0.190158,5.10591 0.243307,10.1823 0.16063,15.2268l10.0583 3.70394c18.3673,6.80434 32.2559,20.4118 39.8374,36.8788 7.59568,16.4977 8.92914,35.85 2.18032,54.1134l-15.1205 40.8957c-3.24922,8.82402 -8.16142,16.7882 -14.3917,23.5477 -6.30355,6.83859 -13.8413,12.3969 -22.265,16.3193l-0.125197 0c-8.52638,3.93307 -17.6398,6.08741 -26.9079,6.45827 -9.28229,0.369685 -18.5256,-1.05118 -27.2941,-4.2626l-10.1551 -3.76418c-3.23977,3.92363 -6.58583,7.75867 -10.0417,11.5004 -3.47362,3.76181 -7.0689,7.44331 -10.7847,11.0398l4.47166 9.71812 0.125197 0.249213 0.0165354 0.0649607c8.07402,17.6858 8.25591,36.9485 2.0315,53.8122 -6.27638,17.0055 -19.0406,31.6394 -36.7737,39.854l-0.249213 0.125197 -0.0637796 0.0188977 -39.3437 18.1075 -0.249213 0.125197 -0.0413386 0.00590552c-17.7012,8.06221 -36.9768,8.23701 -53.8347,2.00669 -17.0291,-6.29646 -31.6725,-19.0713 -39.8575,-36.8079l-0.125197 -0.249213 -0.00826772 -0.0401575 -4.38544 -9.51142c-5.17441,0.480709 -10.3512,0.818505 -15.5268,1.01221 -5.05985,0.188977 -10.0937,0.243307 -15.0945,0.164173l-3.69803 10.0252 -0.125197 0.125197c-3.31063,8.89725 -8.1815,16.8414 -14.3244,23.498 -6.25867,6.78426 -13.8225,12.3236 -22.3949,16.2898l-0.125197 0c-8.59607,3.913 -17.7177,6.05788 -26.9209,6.41339 -9.21733,0.355512 -18.3957,-1.05945 -27.0933,-4.2626l-40.9004 -15.111c-8.86772,-3.2563 -16.8945,-8.21457 -23.7343,-14.5583 -6.67323,-6.18662 -12.1488,-13.7492 -16.0937,-22.3736l-0.0472441 0.022441c-3.93071,-8.46615 -6.10512,-17.5902 -6.47953,-26.9091 -0.364961,-9.11221 1.07126,-18.3307 4.35237,-27.2055l-0.0696851 -0.0259843 3.74292 -10.1138c-3.91418,-3.23504 -7.73977,-6.57756 -11.4721,-10.0264 -3.77717,-3.48898 -7.4752,-7.10316 -11.0882,-10.8378l-9.83859 4.51772 -0.124016 0.125197 -0.0496063 0.022441 -0.0259843 -0.0578741c-17.6965,8.07402 -36.9508,8.27835 -53.7827,2.05866 -17.0197,-6.29292 -31.6429,-19.0571 -39.8233,-36.8185l-0.125197 -0.249213 -0.0141732 -0.0531496 -18.1807 -39.3272 0 -0.125197c-8.13071,-17.7803 -8.34095,-37.1422 -2.0941,-54.0331 6.3,-17.0398 19.0654,-31.6796 36.8162,-39.8528l0.125197 0 9.65316 -4.43977c-0.483071,-5.17323 -0.820867,-10.3547 -1.01339,-15.5386 -0.188977,-5.08229 -0.242126,-10.1339 -0.159449,-15.1465l-10.0394 -3.70158c-8.83465,-3.25276 -16.8,-8.1626 -23.5547,-14.4036l0 -0.125197c-6.8504,-6.33189 -12.4063,-13.8791 -16.3169,-22.3075l0 -0.125197c-2.07874,-4.53662 -3.6626,-9.21142 -4.74213,-13.9524 -1.06299,-4.67363 -1.63819,-9.5752 -1.71142,-14.6268l-0.125197 -0.375591 0 -0.943702 0.125197 -0.250394c0.0413386,-4.19174 0.424016,-8.25473 1.14921,-12.1453 0.72756,-3.90709 1.80709,-7.82008 3.23977,-11.7l-0.0696851 -0.0248032 15.0496 -40.9028 0.0437008 -0.119291 0.125197 -0.125197c6.69804,-17.9386 20.5205,-31.7292 37.0063,-39.3095 16.4811,-7.5756 35.8878,-9.09331 53.7579,-2.49567l0.11811 0.0437008 10.0866 3.73347c3.21851,-3.8941 6.54331,-7.70197 9.97205,-11.4189 3.4937,-3.7878 7.11851,-7.50119 10.8721,-11.1354l-4.4752 -9.71339c-8.18268,-17.7768 -8.39056,-37.1705 -2.12835,-54.1335 6.28583,-17.0327 19.0725,-31.6996 36.8351,-39.9366l0.125197 0 39.5965 -18.1784 0.249213 -0.125197 0.0389764 -0.00472441c17.6658,-8.02914 36.9012,-8.22402 53.7237,-2.01614 17.0374,6.28937 31.6819,19.0559 39.8646,36.8339l0.0153543 0.034252 4.49882 9.76182c5.16969,-0.483071 10.3311,-0.820867 15.4807,-1.01693 5.05985,-0.19252 10.0984,-0.250394 15.1122,-0.174803l3.71221 -10.0606c6.64843,-18.026 20.4839,-31.8744 36.9969,-39.4737zm28.4374 488.68c-11.6847,5.40237 -23.6953,9.45001 -35.9362,12.1382 -12.3437,2.70945 -24.8918,4.06654 -37.5532,4.06654 -34.063,0 -66.8079,-10.0583 -94.6772,-27.8894 -27.8788,-17.837 -50.739,-43.3866 -65.015,-74.3575 -20.2748,-44.0693 -20.7697,-92.2076 -5.20276,-134.356 15.6024,-42.2457 47.2819,-78.5493 91.2993,-98.8265 11.765,-5.4378 23.7343,-9.48898 35.8158,-12.1488 12.3225,-2.71181 24.8929,-4.07126 37.6111,-4.07126 34.0736,0 66.828,10.0512 94.7091,27.887 27.8752,17.8299 50.7378,43.3784 65.0339,74.3753 20.2831,44.0575 20.7815,92.1969 5.21457,134.353 -15.6,42.2469 -47.2784,78.554 -91.2993,98.83z"/>
 </g>
</svg>
