<?xml version="1.0" encoding="UTF-8"?>
<!DOCTYPE svg PUBLIC "-//W3C//DTD SVG 1.1//EN" "http://www.w3.org/Graphics/SVG/1.1/DTD/svg11.dtd">
<!-- Creator: CorelDRAW -->
<svg xmlns="http://www.w3.org/2000/svg" xml:space="preserve" width="2048px" height="2048px" style="shape-rendering:geometricPrecision; text-rendering:geometricPrecision; image-rendering:optimizeQuality; fill-rule:evenodd; clip-rule:evenodd"
viewBox="0 0 2048 2048"
 xmlns:xlink="http://www.w3.org/1999/xlink">
 <defs>
  <style type="text/css">
   <![CDATA[
    .fil1 {fill:none}
    .fil0 {fill:#424242}
    .fil2 {fill:white}
   ]]>
  </style>
 </defs>
 <rect class="fil0" width="2048" height="2048"/>
 <g id="Layer_x0020_1">
  <metadata id="CorelCorpID_0Corel-Layer"/>
  <rect class="fil1" width="2048" height="2048"/>
  <rect class="fil1" x="255.999" y="255.999" width="1536" height="1536"/>
  <rect class="fil1" x="255.999" y="255.999" width="1536" height="1536"/>
  <g id="_253556488">
   <rect id="_253556584" class="fil1" x="255.999" y="255.999" width="1536" height="1536"/>
   <path id="_253556560" class="fil2" d="M375.221 1480.69l65.0351 0c-12.313,246.442 245.786,295.175 446.543,287.345 8.30197,14.2949 23.5583,23.9693 41.2099,23.9693l204.277 0c26.439,0 47.9103,-21.4134 47.9103,-47.8524l0 -42.1902c0,-26.4449 -21.4713,-47.9339 -47.9103,-47.9339l-204.277 0c-23.315,0 -42.6414,16.7067 -46.9548,38.752 -162.497,8.38229 -372.581,-15.8894 -364.275,-212.008l88.1186 0c22.5154,0 40.6536,-18.3 40.6536,-40.7339l0 -476.75c0,-22.5154 -18.2197,-40.7351 -40.6536,-40.7351l-123.276 -0.00590552c16.0571,-293.413 259.224,-535.686 545.282,-535.686 286.157,0 529.311,242.273 545.363,535.692l-129.165 -0.00590552c-22.5319,0 -40.6536,18.2256 -40.6536,40.741l0 476.75c0,22.4339 18.1217,40.7339 40.6536,40.7339l229.735 0c22.4575,0 40.6772,-18.3 40.6772,-40.7339l0 -476.75c0,-10.1445 -3.84331,-19.2461 -9.91891,-26.3587 -8.85119,-370.742 -314.972,-680.926 -676.691,-680.926 -359.777,0 -664.628,306.995 -676.529,675.175 -9.57048,7.4256 -15.8894,19.0193 -15.8894,32.1095l0 476.75c0,22.4339 18.2197,40.6524 40.7351,40.6524z"/>
  </g>
 </g>
</svg>
